<svg xmlns="http://www.w3.org/2000/svg" viewBox="0 0 1320.09 272.84" width="1320.09" height="272.84"><defs><style>.cls-1{fill:#fff;}</style></defs><title>Asset 2</title><g id="Layer_2" data-name="Layer 2"><g id="Layer_1-2" data-name="Layer 1"><path class="cls-1" d="M128.06,41c23.51-23.23,52.05-35.92,84.42-39.3,29.59-3.09,59.22-3.05,87.5,8.48A70.26,70.26,0,0,1,321.2,23.91c-49.67-4.58-90.11,16.56-129.56,41.43,1.57,1.86,3.34,2.29,5.26,2.84,28.34-11.48,57.4-17.11,89.27-9-18.52,6.7-35.35,13.71-51.46,22.34-44.41,23.79-81,55.84-105.55,100.45a205.76,205.76,0,0,0-20.79,55.12,64.12,64.12,0,0,1-39.62-1.95c-33.93-12.36-58.22-34.6-66.31-70.59-7.3-32.48,2.14-61.78,23.3-86.93,21.9-26,50-39.56,84.53-38.55,3,.09,6,.48,8.94.82S125.12,40.64,128.06,41Z"/><path class="cls-1" d="M219.66,131c5.51-9.36,13.4-16.52,21.94-22.9,27-20.21,57.81-30.27,91.17-33.17C354.11,73.1,375,74.89,395,83.1c27.93,11.49,43.65,32.28,46.37,62.55,1.94,21.6-10.55,42.25-32.21,53.73-11.8,6.26-24.42,9.49-37.94,10.81a115.64,115.64,0,0,1-31.29,35.62c-19.5,14.67-41.61,22.84-65.72,25.58-25.42,2.89-50.69,2-74.72-7.6C190,260,181,258.25,170.78,258.92c-18.81,1.23-35.55-4.13-48.33-19.7,4.86-7.12,11-13.14,17.39-18.91,33.18-30.1,71.58-49.43,116.32-55a176.08,176.08,0,0,1,75.47,7.22c12.52,4,25.14,6.75,38.25,3.43,14.39-3.65,23.25-15,23-28.78-.13-6-2.73-10.84-6.85-15-15.26-15.54-34.32-22.58-55.53-24.09C293,105.39,257.9,114.86,224,129.84c-1.35.6-2.55,2.22-4.38,1.13Z"/><path class="cls-1" d="M1150.7,181c-5.13,10.93-11.74,20-20.53,27.31-20.52,17.09-44.17,22.47-70.13,17.55-19.4-3.68-32.83-18.65-33.94-40.34-1.64-32,6.64-61.37,30.07-84.38,21.36-21,47.65-25.53,75.92-17.79,16.85,4.61,26.29,16.78,29.08,34,2.56,15.81-.44,31.05-4.59,46.5h-92.14c-1.53,8.75-2.54,17,2.68,24.73,2,3,4.66,5.42,8.11,6.31,10.94,2.84,21.9,2.76,30.61-5.19,7.2-6.57,14.84-9.49,24.42-8.78C1136.85,181.4,1143.49,181,1150.7,181Zm-79.94-41.46h52.59c4.38-18.29-4.3-29.37-22-28.34a36.89,36.89,0,0,0-5.9.91C1082.93,114.95,1070.94,128.26,1070.77,139.55Z"/><path class="cls-1" d="M585.87,178.25h35.59c.81,14.85,6.38,20.12,21.53,20.78,6.4.28,12.62-.32,18.59-2.79a20.68,20.68,0,0,0,6-3.56c7.13-6.33,6.29-13.05-2.21-17.36s-18-4.67-26.84-7.44c-7.93-2.48-15.93-4.74-23.3-8.73-12.6-6.82-17.71-17.2-14.82-31.18,4.89-23.62,20.14-37.59,42.54-44.36a87.58,87.58,0,0,1,47.34-1c22.22,5.58,31.93,21,27.8,44.18-8.83,0-17.78.3-26.68-.13-4.17-.21-7.22-3.15-9-7.06-2.74-6-7.42-9.08-13.87-10.06a44.15,44.15,0,0,0-19.73,1.4,14.24,14.24,0,0,0-7.05,4.49c-4.91,5.91-4.14,10.51,2.58,14.17,8,4.36,16.87,6.21,25.61,8.05a108.55,108.55,0,0,1,25.87,8.74c14.21,7,18.87,16.8,15.44,32.29-4.61,20.78-16.88,35.26-36.82,42.59-20.5,7.53-41.73,8.46-62.92,3.65C588.35,219.72,578.5,201.31,585.87,178.25Z"/><path class="cls-1" d="M898.21,119.63H862.52a52.13,52.13,0,0,1,16.72-24c14.3-12,31.28-15.64,49.37-15.52,9.67.06,19.28.85,28.58,3.8,17.65,5.6,25.08,17.4,21.35,35.48s-7.73,36.11-12.47,53.94c-8.73,32.79-32.15,51.13-67.46,53.55-10.28.71-20.6,1.72-30.8-.9-14.61-3.74-23.56-12.51-25-24.56-2.91-24.18,10.14-46.55,32.53-56.35,12.71-5.56,26.27-7,39.74-9,6.43-1,12.84-1.93,18.77-4.79,2.72-1.31,5.27-2.83,7-5.43,4.1-6.14,2.16-11.78-4.89-13.95a44.32,44.32,0,0,0-27.46,0C904.2,113.24,901,116.05,898.21,119.63ZM935.73,154a158.22,158.22,0,0,1-25.56,7.3c-6,1.19-12,2.39-17.77,4.8-8.21,3.47-12.22,10-13.55,18.37-1.19,7.53,2.81,12.55,10.36,13.63A38,38,0,0,0,930.69,174C933.13,167.79,934.07,161.21,935.73,154Z"/><path class="cls-1" d="M602.23,83.46c-2.34,10.19-4.51,20.05-6.95,29.84-.31,1.25-1.89,2.26-3,3.22q-43.35,37.3-86.74,74.56c-.61.53-1.19,1.1-2.72,2.53h76.93l-7.14,31.21h-123l6.42-28.3,94.43-83.4c-2.68-.12-4.24-.25-5.81-.25-15.33,0-30.65,0-46,0-11.67,0-17.37-7.11-15-18.52.74-3.56,1.59-7.1,2.45-10.87Z"/><path class="cls-1" d="M816.61,126.35c-8.12-17.17-28-20.46-42.73-7.32a36.93,36.93,0,0,0-8.06,10.11c-8,15-12.44,30.84-11.2,47.9.85,11.75,7.85,18.32,19.64,19.21,9.9.75,18.89-1.63,26.15-8.69A22.73,22.73,0,0,1,818,180.95c7.78.28,15.58.06,24.17.06a71.49,71.49,0,0,1-14.69,21.76C806,224.55,779.79,231.7,750.2,225.46c-18.38-3.88-31.12-18.93-32.39-37.89-2.1-31.48,6-60,27.31-84,19.11-21.44,54.54-29.69,81.3-19.43a41.74,41.74,0,0,1,26.8,42.18Z"/><path class="cls-1" d="M1004.09,224.81H966.55l41.71-182.73c8.19-.13,16.5-1.29,24.6.69,7.15,1.75,10.6,8.09,8.9,16.09-3.49,16.43-7.34,32.79-11.07,49.17C1021.88,146.79,1013,185.54,1004.09,224.81Z"/><path class="cls-1" d="M1189.37,224.8h-37.69c7-27.66,11.07-55.77,20-82.58,11.86-35.61,37.87-54.16,74.72-58.23,5.6-.62,11.22-1.27,17.67-.48l-8.43,31.35c-6.06.66-12.06.91-17.81,2.57-18,5.21-27.78,18.2-32,35.58C1200,176.74,1194.87,200.62,1189.37,224.8Z"/><path class="cls-1" d="M1312.85,51.29h7.24l-4.85,23.56a5.61,5.61,0,0,1-4.88.37c-.64-3.58,2-6.88,1.09-11.27-3.8,3.28-4.47,8-7.45,11.33a4.43,4.43,0,0,1-3.81-.21c-1.43-4.17-.66-9-3-14.44l-2.93,14.12c-1.44,1.39-3.06.66-5.29.73l4.88-23.66c2.46-1.11,4.87-.66,7.61-.34l1.94,15.4C1307.81,61.71,1309.25,55.87,1312.85,51.29Zm-.77,11.7c.51-.57,1.08-1.14,0-1.71C1311.45,61.95,1311.41,62.49,1312.08,63Z"/><path class="cls-1" d="M1289.23,51.48c.44,1.72-.25,3-.81,4.38l-6.84.37L1277.47,75c-1.89.91-3.48.58-5.56.27l3.84-18.94-6.85-.57a4.91,4.91,0,0,1,.89-4.28Z"/><path class="cls-1" d="M219.59,131l.16.82-1.2.06-.05.09,1.16-.92Z"/><polygon class="cls-1" points="218.55 131.85 218.52 132.08 218.5 131.94 218.55 131.85"/></g></g></svg>
